<svg xmlns="http://www.w3.org/2000/svg" width="260" height="264" viewBox="0 0 260 264">
  <g id="组_57" data-name="组 57" transform="translate(-380 -1883)">
    <path id="减去_1" data-name="减去 1" d="M245-3595H-15v-90.019c.162.012.329.019.5.019a6.507,6.507,0,0,0,6.5-6.5,6.508,6.508,0,0,0-6.5-6.5c-.165,0-.333.006-.5.019v-70.038c.159.012.327.019.5.019a6.508,6.508,0,0,0,6.5-6.5,6.507,6.507,0,0,0-6.5-6.5c-.169,0-.337.006-.5.019V-3859H245v78.019c-.159-.012-.327-.019-.5-.019a6.507,6.507,0,0,0-6.5,6.5,6.507,6.507,0,0,0,6.5,6.5c.169,0,.337-.006.5-.019v70.038c-.163-.012-.33-.019-.5-.019a6.507,6.507,0,0,0-6.5,6.5,6.507,6.507,0,0,0,6.5,6.5c.166,0,.334-.006.5-.019V-3595Z" transform="translate(395 5742)" fill="#f6f6f6"/>
    <g id="组_56" data-name="组 56" transform="translate(0 2)">
      <text id="_200元" data-name="200元" transform="translate(398 1934)" fill="#d12d2c" font-size="30" font-family="Helvetica"><tspan x="0" y="0">200</tspan><tspan y="0" font-size="14" font-family="PingFangSC-Regular, PingFang SC">元</tspan></text>
      <g id="组_55" data-name="组 55" transform="translate(0 10)">
        <text id="满399元即可使用" transform="translate(477 1907)" fill="#ccc" font-size="12" font-family="PingFangSC-Regular, PingFang SC"><tspan x="0" y="0">满</tspan><tspan y="0" font-family="Helvetica">399</tspan><tspan y="0">元即可使用</tspan></text>
        <text id="新疆医科大学继续教育学院" transform="translate(477 1929)" fill="#999" font-size="12" font-family="PingFangSC-Regular, PingFang SC"><tspan x="0" y="0">新疆医科大学继续教育学院</tspan></text>
      </g>
    </g>
    <g id="组_56-2" data-name="组 56" transform="translate(0 86)">
      <text id="_200元-2" data-name="200元" transform="translate(398 1934)" fill="#d12d2c" font-size="30" font-family="Helvetica"><tspan x="0" y="0">200</tspan><tspan y="0" font-size="14" font-family="PingFangSC-Regular, PingFang SC">元</tspan></text>
      <g id="组_55-2" data-name="组 55" transform="translate(0 10)">
        <text id="满399元即可使用-2" data-name="满399元即可使用" transform="translate(477 1907)" fill="#ccc" font-size="12" font-family="PingFangSC-Regular, PingFang SC"><tspan x="0" y="0">满</tspan><tspan y="0" font-family="Helvetica">399</tspan><tspan y="0">元即可使用</tspan></text>
        <text id="新疆医科大学继续教育学院-2" data-name="新疆医科大学继续教育学院" transform="translate(477 1929)" fill="#999" font-size="12" font-family="PingFangSC-Regular, PingFang SC"><tspan x="0" y="0">新疆医科大学继续教育学院</tspan></text>
      </g>
    </g>
    <g id="组_56-3" data-name="组 56" transform="translate(0 170)">
      <text id="_200元-3" data-name="200元" transform="translate(398 1934)" fill="#d12d2c" font-size="30" font-family="Helvetica"><tspan x="0" y="0">200</tspan><tspan y="0" font-size="14" font-family="PingFangSC-Regular, PingFang SC">元</tspan></text>
      <g id="组_55-3" data-name="组 55" transform="translate(0 10)">
        <text id="满399元即可使用-3" data-name="满399元即可使用" transform="translate(477 1907)" fill="#ccc" font-size="12" font-family="PingFangSC-Regular, PingFang SC"><tspan x="0" y="0">满</tspan><tspan y="0" font-family="Helvetica">399</tspan><tspan y="0">元即可使用</tspan></text>
        <text id="新疆医科大学继续教育学院-3" data-name="新疆医科大学继续教育学院" transform="translate(477 1929)" fill="#999" font-size="12" font-family="PingFangSC-Regular, PingFang SC"><tspan x="0" y="0">新疆医科大学继续教育学院</tspan></text>
      </g>
    </g>
    <line id="直线_24" data-name="直线 24" x2="246" transform="translate(387 1967)" fill="none" stroke="#e33333" stroke-width="1" stroke-dasharray="4"/>
    <line id="直线_25" data-name="直线 25" x2="245" transform="translate(388 2050)" fill="none" stroke="#e33333" stroke-width="1" stroke-dasharray="4"/>
  </g>
</svg>
